<svg width="42" height="50" viewBox="0 0 42 50" fill="none" xmlns="http://www.w3.org/2000/svg">
<path d="M40.3672 6.94379C40.3672 6.94379 32.3644 5.53152 30.0891 4.74693C26.8734 3.85645 23.8665 2.33634 21.2428 0.27476C21.0684 0.106368 20.8378 0.00854001 20.5955 0.000153179C20.3332 -0.00443441 20.0797 0.0941819 19.8894 0.27476C17.2911 2.35311 14.2934 3.87532 11.0824 4.74693C8.82665 5.53152 0.980739 6.94379 0.823821 6.94379C0.595094 6.98085 0.386877 7.09771 0.236081 7.27364C0.0852855 7.44957 0.00165005 7.6732 0 7.90491C0 23.7929 0.196148 31.1288 5.06061 38.602C9.21895 44.9965 19.7717 48.8802 20.2228 49.0567C20.3331 49.077 20.4461 49.077 20.5563 49.0567H20.8897C21.3409 48.8802 31.9721 44.9965 36.1304 38.602C40.9949 31.1288 41.191 23.7929 41.191 7.90491C41.1894 7.6732 41.1058 7.44957 40.955 7.27364C40.8042 7.09771 40.5959 6.98085 40.3672 6.94379ZM34.4828 37.5428C31.0698 42.78 22.3608 46.3695 20.5563 47.0756C18.7517 46.3695 10.1212 42.78 6.70826 37.5428C2.393 30.913 1.98109 24.9894 1.96148 8.72873C5.26309 8.24935 8.53685 7.5946 11.7689 6.76725C14.9315 5.74054 17.9109 4.21775 20.5955 2.25585C23.3101 4.16524 26.3088 5.63477 29.481 6.61033C32.7131 7.43746 35.9868 8.09221 39.2884 8.57181C39.2099 24.9109 38.798 30.8346 34.4828 37.4644V37.5428Z" fill="#5B331F"/>
<path d="M11.4158 25.519C11.3199 25.4338 11.208 25.3686 11.0865 25.3273C10.9651 25.286 10.8366 25.2694 10.7086 25.2786C10.5806 25.2877 10.4558 25.3224 10.3414 25.3805C10.2271 25.4387 10.1255 25.5191 10.0428 25.6171C9.87672 25.8187 9.79608 26.0772 9.81807 26.3374C9.84006 26.5976 9.96294 26.8389 10.1605 27.0098L19.9678 35.3853C20.1401 35.5397 20.3642 35.6237 20.5955 35.6207H20.7328C20.871 35.6006 21.0035 35.5519 21.1218 35.4776C21.24 35.4033 21.3414 35.305 21.4193 35.1891L32.8351 18.4381C32.9834 18.2222 33.0398 17.9563 32.992 17.6988C32.9442 17.4413 32.796 17.2133 32.5802 17.0651C32.3643 16.9168 32.0983 16.8604 31.8408 16.9082C31.5833 16.956 31.3554 17.1042 31.2071 17.3201L20.3994 33.1884L11.4158 25.519Z" fill="#5B331F"/>
</svg>
