<svg width="14" height="18" viewBox="0 0 14 18" fill="none" xmlns="http://www.w3.org/2000/svg">
<path d="M10.8333 10.3612C10.9187 9.69454 10.3775 9.11121 9.69388 9.11121H1.14831C0.464663 9.11121 -0.076556 9.69454 0.00889968 10.3612C0.322237 12.8056 1.46165 18 5.42109 18C7.24415 18 8.44053 16.9167 9.2666 15.5C9.66539 15.5 11.2321 15.4445 12.0012 14.8334L13.4254 12.7223C13.4254 11.8056 12.343 11.0556 11.1466 11.0556H10.7193C10.7763 10.8056 10.8048 10.5834 10.8333 10.3612ZM11.1466 12.1667C11.6309 12.1667 12.0012 12.3612 12.1721 12.5556L11.1751 14.0556C10.9187 14.1945 10.4915 14.2778 10.0357 14.3612L11.0327 12.1945H11.1466V12.1667ZM5.42109 16.8889C4.13926 16.8889 3.14228 16.1389 2.37317 14.6112C1.63256 13.1667 1.29074 11.4445 1.14831 10.2223H9.69388C9.40903 11.4167 9.20963 13.1667 8.46901 14.6112C7.67143 16.1389 6.70293 16.8889 5.42109 16.8889Z" fill="black"/>
<path d="M2.886 3.24996C2.77206 3.36107 2.57267 3.52774 2.37327 3.74996C2.17387 3.97218 2.03145 4.33329 2.00296 4.63884C2.00296 4.72217 2.00296 4.77773 2.00296 4.88884C2.00296 4.9444 2.00296 4.99995 2.03145 5.0555C2.05993 5.16661 2.05993 5.3055 2.08842 5.41661C2.14539 5.63883 2.20236 5.83328 2.28781 5.99994C2.43024 6.33327 2.57266 6.61105 2.71509 6.77772C2.77206 6.86105 2.82903 6.94438 2.85752 6.97216C2.886 7.02771 2.91449 7.05549 2.91449 7.05549C2.97146 7.13882 3.0854 7.19438 3.19934 7.1666C3.34177 7.13882 3.45571 6.97216 3.42722 6.83327V6.80549C3.42722 6.80549 3.39874 6.69438 3.37025 6.52772C3.34177 6.33327 3.2848 6.08327 3.22783 5.77772C3.19934 5.61106 3.17085 5.47217 3.17085 5.3055C3.17085 5.22217 3.17085 5.13884 3.17085 5.08328C3.17085 5.02773 3.17085 4.97217 3.17085 4.91662C3.17085 4.91662 3.17085 4.86106 3.17085 4.83329C3.19934 4.72218 3.22782 4.66662 3.34177 4.55551C3.42722 4.4444 3.59813 4.30551 3.79753 4.11107C3.99693 3.91662 4.19632 3.61107 4.28178 3.27774C4.36723 2.88885 4.31026 2.66663 4.28178 2.44441C4.19632 1.97219 4.08238 1.58331 3.93996 1.24998C3.82602 0.916645 3.68359 0.666649 3.59813 0.472206C3.51268 0.277763 3.45571 0.19443 3.45571 0.19443C3.39874 0.111097 3.2848 0.055542 3.17085 0.055542C2.99994 0.0833196 2.91449 0.222207 2.94297 0.388872C2.94297 0.388872 2.97146 0.499982 2.99994 0.694425C3.02843 0.888868 3.05691 1.16664 3.11388 1.4722C3.17086 1.80553 3.19934 2.16664 3.22783 2.55552C3.22783 2.72219 3.22782 2.97219 3.19934 2.99996C3.0854 3.02774 3.02843 3.11107 2.886 3.24996Z" fill="brown"/>
<path d="M5.67756 0.138888C5.62059 0.0555551 5.50665 0 5.39271 0C5.2218 0.0277776 5.13634 0.166667 5.16483 0.333332C5.16483 0.333332 5.19332 0.444442 5.2218 0.638885C5.25029 0.833328 5.27877 1.1111 5.33574 1.41666C5.39271 1.74999 5.4212 2.1111 5.44968 2.49998C5.44968 2.66665 5.44968 2.91665 5.4212 2.94442C5.39271 3.02776 5.33574 3.11109 5.19331 3.24998C5.07937 3.36109 4.87998 3.52775 4.68058 3.74997C4.48118 3.97219 4.33876 4.3333 4.31027 4.63885C4.31027 4.72219 4.31027 4.77774 4.31027 4.88885C4.31027 4.94441 4.31027 4.99996 4.33876 5.05552C4.36724 5.16663 4.36724 5.30552 4.39573 5.41663C4.4527 5.63885 4.50967 5.83329 4.59512 5.99996C4.73755 6.33329 4.87998 6.61107 5.0224 6.77773C5.07937 6.86106 5.13634 6.9444 5.16483 6.97217C5.19331 7.02773 5.2218 7.05551 5.2218 7.05551C5.27877 7.13884 5.39271 7.19439 5.50665 7.16662C5.64908 7.13884 5.76302 6.97217 5.73454 6.83329V6.80551C5.73454 6.80551 5.70605 6.6944 5.67756 6.52773C5.64908 6.33329 5.59211 6.08329 5.53514 5.77774C5.50665 5.61107 5.47817 5.47218 5.47817 5.30552C5.47817 5.22219 5.47817 5.13885 5.47817 5.0833C5.47817 5.02774 5.47817 4.97219 5.47817 4.91663C5.47817 4.91663 5.47817 4.86108 5.47817 4.8333C5.50665 4.72219 5.53514 4.66664 5.64908 4.55553C5.73453 4.44441 5.90544 4.30553 6.10484 4.11108C6.30424 3.91664 6.50364 3.61109 6.58909 3.27775C6.67455 2.88887 6.61758 2.66665 6.58909 2.44443C6.50364 1.97221 6.38969 1.58332 6.24727 1.24999C6.13333 0.91666 5.9909 0.666663 5.90544 0.47222C5.76302 0.222222 5.67756 0.138888 5.67756 0.138888Z" fill="brown"/>
<path d="M7.44356 3.24996C7.32962 3.36107 7.13022 3.52774 6.93083 3.74996C6.73143 3.97218 6.589 4.33329 6.56052 4.63884C6.56052 4.72217 6.56052 4.77773 6.56052 4.88884C6.56052 4.9444 6.56052 4.99995 6.589 5.0555C6.61749 5.16661 6.61749 5.3055 6.64597 5.41661C6.70294 5.63883 6.75991 5.83328 6.84537 5.99994C6.98779 6.33327 7.13022 6.61105 7.27265 6.77772C7.32962 6.86105 7.38659 6.94438 7.41507 6.97216C7.44356 7.02771 7.47204 7.05549 7.47204 7.05549C7.52901 7.13882 7.64295 7.19438 7.7569 7.1666C7.89932 7.13882 8.01326 6.97216 7.98478 6.83327V6.80549C7.98478 6.80549 7.95629 6.69438 7.92781 6.52771C7.89932 6.33327 7.84235 6.08327 7.78538 5.77772C7.7569 5.61106 7.72841 5.47217 7.72841 5.3055C7.72841 5.22217 7.72841 5.13884 7.72841 5.08328C7.72841 5.02773 7.72841 4.97217 7.72841 4.91661C7.72841 4.91661 7.72841 4.86106 7.72841 4.83329C7.7569 4.72218 7.78538 4.66662 7.89932 4.55551C7.98478 4.4444 8.15569 4.30551 8.35509 4.11107C8.55448 3.91662 8.75388 3.61107 8.83933 3.27774C8.92479 2.88885 8.86782 2.66663 8.83933 2.44441C8.75388 1.97219 8.63994 1.58331 8.49751 1.24998C8.38357 0.916645 8.24115 0.666649 8.15569 0.472206C8.07024 0.277763 8.01326 0.19443 8.01326 0.19443C7.95629 0.111097 7.84235 0.055542 7.72841 0.055542C7.5575 0.0833196 7.47204 0.222207 7.50053 0.388872C7.50053 0.388872 7.52901 0.499982 7.5575 0.694425C7.58598 0.888868 7.61447 1.16664 7.67144 1.4722C7.72841 1.80553 7.7569 2.16664 7.78538 2.55552C7.78538 2.72219 7.78538 2.97219 7.7569 2.99996C7.64295 3.02774 7.58599 3.11107 7.44356 3.24996Z" fill="brown"/>
</svg>
