<svg width="932" height="87" viewBox="0 0 932 87" fill="none" xmlns="http://www.w3.org/2000/svg">
<path d="M59.3047 27.2812C59.3047 27.724 59.1745 28.1406 58.9141 28.5312C58.6797 28.8958 58.3411 29.1432 57.8984 29.2734C56.987 29.5078 56.0885 29.7292 55.2031 29.9375C54.3177 30.1198 53.4193 30.276 52.5078 30.4062C53.1849 34.5208 53.6536 38.5182 53.9141 42.3984C54.2005 46.2786 54.3438 50.1198 54.3438 53.9219C54.3438 59.0781 54.1354 64.0521 53.7188 68.8438C53.3281 73.6354 52.8464 78.3359 52.2734 82.9453C52.1172 83.5182 51.8438 83.9479 51.4531 84.2344C51.0885 84.5469 50.6719 84.7031 50.2031 84.7031C49.3177 84.7031 48.7057 84.2865 48.3672 83.4531C47.638 81.6823 46.6354 79.5078 45.3594 76.9297C44.1094 74.3255 42.6901 71.5391 41.1016 68.5703C39.5391 65.5755 37.8724 62.4766 36.1016 59.2734C34.3568 56.0703 32.638 52.9714 30.9453 49.9766C29.2786 46.9818 27.7031 44.1823 26.2188 41.5781C24.7344 38.9479 23.4714 36.7214 22.4297 34.8984L21.2578 80.1719C22.2474 80.25 23.25 80.3281 24.2656 80.4062C25.3073 80.4844 26.349 80.5625 27.3906 80.6406C27.9115 80.7188 28.3411 80.9531 28.6797 81.3438C29.0443 81.7344 29.2266 82.1901 29.2266 82.7109C29.2266 83.3099 29.0052 83.7917 28.5625 84.1562C28.1198 84.5208 27.651 84.7031 27.1562 84.7031H27C24.9167 84.4948 22.8333 84.3385 20.75 84.2344C18.6927 84.1302 16.6224 84.0781 14.5391 84.0781C12.4818 84.0781 10.4375 84.1302 8.40625 84.2344C6.40104 84.3385 4.38281 84.4948 2.35156 84.7031H2.19531C1.6224 84.7031 1.1276 84.4948 0.710938 84.0781C0.320312 83.6875 0.125 83.2318 0.125 82.7109C0.125 82.1901 0.294271 81.7344 0.632812 81.3438C0.997396 80.9531 1.4401 80.7188 1.96094 80.6406C2.92448 80.5625 3.88802 80.4844 4.85156 80.4062C5.84115 80.3281 6.81771 80.25 7.78125 80.1719L8.67969 30.875C6.4401 30.7188 4.17448 30.4844 1.88281 30.1719C1.36198 30.0938 0.932292 29.8594 0.59375 29.4688C0.28125 29.0521 0.125 28.5833 0.125 28.0625C0.125 27.4375 0.359375 26.9557 0.828125 26.6172C1.29688 26.2526 1.7526 26.0703 2.19531 26.0703H2.42969C5.21615 26.4349 7.9375 26.7214 10.5938 26.9297C13.276 27.112 15.9453 27.2031 18.6016 27.2031H21.4922C21.5182 27.2031 21.5964 27.2161 21.7266 27.2422C21.8568 27.2422 22 27.2682 22.1562 27.3203C22.3385 27.3724 22.5208 27.4635 22.7031 27.5938C22.9115 27.724 23.0938 27.9062 23.25 28.1406C23.3542 28.3229 23.6927 28.9089 24.2656 29.8984C24.8385 30.888 25.5807 32.1771 26.4922 33.7656C27.4036 35.3542 28.4453 37.1901 29.6172 39.2734C30.8151 41.3568 32.0781 43.5833 33.4062 45.9531C34.7604 48.3229 36.1406 50.7839 37.5469 53.3359C38.9531 55.888 40.3333 58.4401 41.6875 60.9922C43.0677 63.5182 44.3828 65.9922 45.6328 68.4141C46.9089 70.8099 48.0547 73.0495 49.0703 75.1328C49.4089 71.7214 49.6953 68.2578 49.9297 64.7422C50.1641 61.2266 50.2812 57.6198 50.2812 53.9219C50.2812 50.224 50.138 46.4479 49.8516 42.5938C49.5651 38.7396 49.0964 34.7812 48.4453 30.7188C48.1068 30.7708 47.7812 30.7969 47.4688 30.7969C47.1562 30.7969 46.8177 30.7969 46.4531 30.7969C44.9167 30.7969 43.3151 30.7188 41.6484 30.5625C41.1276 30.5104 40.6849 30.2891 40.3203 29.8984C39.9818 29.4818 39.8125 29.013 39.8125 28.4922C39.8125 27.9193 40.0208 27.4375 40.4375 27.0469C40.8802 26.6562 41.362 26.4609 41.8828 26.4609H42.1172C42.8464 26.5651 43.5625 26.6432 44.2656 26.6953C44.9948 26.7214 45.724 26.7344 46.4531 26.7344C48.25 26.7344 50.0078 26.6172 51.7266 26.3828C53.4453 26.1484 55.125 25.8099 56.7656 25.3672C56.8698 25.3151 57.0521 25.2891 57.3125 25.2891C57.8854 25.2891 58.3542 25.4974 58.7188 25.9141C59.1094 26.3047 59.3047 26.7604 59.3047 27.2812ZM121.023 28.9609C121.023 29.5339 120.841 30.0156 120.477 30.4062C120.138 30.7708 119.708 30.9792 119.188 31.0312L112.781 31.5391C112.911 32.6849 113.081 34.1953 113.289 36.0703C113.497 37.9193 113.693 40.0026 113.875 42.3203C114.057 44.612 114.214 47.0599 114.344 49.6641C114.5 52.2422 114.591 54.8073 114.617 57.3594C114.539 60.0938 114.318 62.7109 113.953 65.2109C113.589 67.7109 113.042 70.0547 112.312 72.2422C111.609 74.4036 110.685 76.3698 109.539 78.1406C108.393 79.9115 107 81.4349 105.359 82.7109C103.719 83.9609 101.792 84.9245 99.5781 85.6016C97.3906 86.3047 94.8906 86.6562 92.0781 86.6562C88.9792 86.6562 86.2969 86.1484 84.0312 85.1328C81.7656 84.1432 79.8385 82.8151 78.25 81.1484C76.6615 79.4557 75.3724 77.5026 74.3828 75.2891C73.3932 73.0755 72.612 70.7578 72.0391 68.3359C71.4922 65.9141 71.1146 63.4661 70.9062 60.9922C70.724 58.5182 70.6328 56.1615 70.6328 53.9219C70.6328 51.474 70.6849 49.1432 70.7891 46.9297C70.9193 44.7161 71.0625 42.6979 71.2188 40.875C71.401 39.026 71.5833 37.3984 71.7656 35.9922C71.974 34.5599 72.1562 33.388 72.3125 32.4766H67.6641C67.0651 32.4766 66.5703 32.2812 66.1797 31.8906C65.7891 31.474 65.5938 30.9792 65.5938 30.4062C65.5938 29.8333 65.7891 29.3516 66.1797 28.9609C66.5703 28.5443 67.0651 28.3359 67.6641 28.3359H92.1562C92.7031 28.3359 93.1849 28.5443 93.6016 28.9609C94.0182 29.3516 94.2266 29.8333 94.2266 30.4062C94.2266 30.9792 94.0182 31.474 93.6016 31.8906C93.1849 32.2812 92.7031 32.4766 92.1562 32.4766H86.2188C86.0885 33.3099 85.9323 34.4818 85.75 35.9922C85.5938 37.4766 85.4245 39.1953 85.2422 41.1484C85.0599 43.1016 84.9036 45.25 84.7734 47.5938C84.6693 49.9375 84.6172 52.3724 84.6172 54.8984C84.6172 56.3828 84.6432 58.0755 84.6953 59.9766C84.7734 61.8776 84.9427 63.8307 85.2031 65.8359C85.4896 67.8411 85.8802 69.8073 86.375 71.7344C86.8958 73.6615 87.599 75.3802 88.4844 76.8906C89.3698 78.401 90.4635 79.625 91.7656 80.5625C93.0938 81.474 94.6823 81.9297 96.5312 81.9297C98.9531 81.9297 101.036 81.2917 102.781 80.0156C104.552 78.7396 105.997 76.9948 107.117 74.7812C108.263 72.5677 109.109 69.9635 109.656 66.9688C110.203 63.974 110.477 60.7708 110.477 57.3594C110.477 54.8333 110.411 52.2943 110.281 49.7422C110.151 47.1641 109.995 44.7422 109.812 42.4766C109.63 40.1849 109.435 38.1276 109.227 36.3047C109.018 34.4557 108.849 32.9974 108.719 31.9297L102.156 32.4766H101.922C101.349 32.4766 100.867 32.2682 100.477 31.8516C100.086 31.4089 99.8906 30.9271 99.8906 30.4062C99.8906 29.8854 100.06 29.4297 100.398 29.0391C100.763 28.6484 101.206 28.4141 101.727 28.3359L118.875 26.9688H119.031C119.578 26.9688 120.047 27.1771 120.438 27.5938C120.828 27.9844 121.023 28.4401 121.023 28.9609ZM171.18 82.9453C171.102 83.4661 170.867 83.8828 170.477 84.1953C170.086 84.5339 169.63 84.7031 169.109 84.7031H169.031C162.026 84.2344 155.19 84 148.523 84C141.753 84 135.229 84.2344 128.953 84.7031H128.758C128.159 84.651 127.664 84.4427 127.273 84.0781C126.883 83.7135 126.688 83.2318 126.688 82.6328C126.688 82.112 126.87 81.6693 127.234 81.3047C127.599 80.9141 128.055 80.6927 128.602 80.6406C129.435 80.5625 130.268 80.5104 131.102 80.4844C131.961 80.4323 132.807 80.3802 133.641 80.3281V32.7109C132.807 32.6589 131.974 32.6328 131.141 32.6328C130.333 32.6328 129.513 32.6328 128.68 32.6328C128.133 32.5807 127.664 32.3724 127.273 32.0078C126.883 31.6172 126.688 31.1354 126.688 30.5625C126.688 29.9896 126.896 29.5078 127.312 29.1172C127.729 28.7005 128.211 28.4922 128.758 28.4922C129.747 28.5443 130.698 28.5703 131.609 28.5703C132.547 28.5703 133.471 28.5703 134.383 28.5703C139.93 28.5703 145.424 28.388 150.867 28.0234C156.31 27.6589 161.74 27.112 167.156 26.3828H167.508C168.029 26.3828 168.471 26.5651 168.836 26.9297C169.201 27.2682 169.422 27.6719 169.5 28.1406L171.18 41.3438V41.6172C171.18 42.2161 170.958 42.6979 170.516 43.0625C170.099 43.4271 169.63 43.6094 169.109 43.6094C168.615 43.6094 168.172 43.4531 167.781 43.1406C167.417 42.8021 167.182 42.3724 167.078 41.8516L165.672 30.7188C162.651 31.1354 159.617 31.474 156.57 31.7344C153.549 31.9688 150.503 32.1641 147.43 32.3203V58.0625C148.055 58.0365 148.888 57.9974 149.93 57.9453C150.971 57.8932 152.091 57.8151 153.289 57.7109C154.513 57.6068 155.75 57.4896 157 57.3594C158.276 57.2031 159.461 57.0208 160.555 56.8125H160.945C161.492 56.8125 161.974 57.0208 162.391 57.4375C162.807 57.8281 163.016 58.2839 163.016 58.8047C163.016 59.3255 162.859 59.7682 162.547 60.1328C162.234 60.4974 161.831 60.7448 161.336 60.875C160.138 61.1094 158.849 61.3047 157.469 61.4609C156.115 61.6172 154.786 61.7474 153.484 61.8516C152.208 61.9297 151.036 61.9948 149.969 62.0469C148.901 62.099 148.055 62.138 147.43 62.1641V79.9375H148.523C151.622 79.9375 154.734 79.9766 157.859 80.0547C161.01 80.1328 164.174 80.276 167.352 80.4844L168.758 70.0156C168.862 69.4948 169.096 69.0781 169.461 68.7656C169.852 68.4271 170.294 68.2578 170.789 68.2578C171.414 68.2578 171.909 68.4792 172.273 68.9219C172.664 69.3646 172.859 69.8073 172.859 70.25V70.5625L171.18 82.9453ZM228.719 68.8047C228.719 71.6432 228.068 74.1823 226.766 76.4219C225.464 78.6354 223.784 80.5104 221.727 82.0469C219.669 83.5573 217.378 84.7161 214.852 85.5234C212.352 86.3307 209.878 86.7344 207.43 86.7344C202.846 86.7344 198.615 85.901 194.734 84.2344C190.854 82.5677 187.404 80.1198 184.383 76.8906V77.8281C184.383 78.6615 184.396 79.4818 184.422 80.2891C184.448 81.0964 184.487 81.9036 184.539 82.7109V82.8672C184.539 83.388 184.357 83.8438 183.992 84.2344C183.654 84.625 183.198 84.8464 182.625 84.8984C182.026 84.8984 181.531 84.7161 181.141 84.3516C180.75 83.987 180.529 83.5182 180.477 82.9453C180.424 82.112 180.385 81.2786 180.359 80.4453C180.333 79.5859 180.32 78.7396 180.32 77.9062C180.32 75.25 180.451 72.8021 180.711 70.5625C180.971 68.2969 181.323 66.0573 181.766 63.8438C181.896 63.349 182.13 62.9453 182.469 62.6328C182.833 62.3203 183.263 62.1641 183.758 62.1641C184.357 62.1641 184.852 62.3984 185.242 62.8672C185.633 63.3099 185.828 63.7656 185.828 64.2344C185.828 64.2865 185.828 64.3516 185.828 64.4297C185.828 64.4818 185.802 64.5469 185.75 64.625C185.62 65.224 185.503 65.7839 185.398 66.3047C185.32 66.7995 185.229 67.2943 185.125 67.7891C185.047 68.2578 184.969 68.7526 184.891 69.2734C184.839 69.7682 184.773 70.3281 184.695 70.9531C187.612 74.7031 190.945 77.5938 194.695 79.625C198.445 81.6302 202.664 82.6328 207.352 82.6328C208.68 82.6328 210.099 82.5156 211.609 82.2812C213.146 82.0469 214.552 81.6302 215.828 81.0312C217.13 80.4062 218.198 79.5859 219.031 78.5703C219.891 77.5286 220.32 76.2135 220.32 74.625C220.32 73.5052 220.021 72.4896 219.422 71.5781C218.823 70.6406 218.042 69.8073 217.078 69.0781C216.115 68.349 215.021 67.7109 213.797 67.1641C212.599 66.5911 211.388 66.0964 210.164 65.6797C208.94 65.263 207.768 64.9245 206.648 64.6641C205.555 64.3776 204.617 64.1562 203.836 64C201.987 63.6094 200.151 63.1797 198.328 62.7109C196.505 62.2161 194.773 61.6302 193.133 60.9531C191.492 60.276 189.969 59.4818 188.562 58.5703C187.156 57.6589 185.932 56.5911 184.891 55.3672C183.875 54.1172 183.068 52.6719 182.469 51.0312C181.896 49.3906 181.609 47.5026 181.609 45.3672C181.609 43.2839 181.883 41.3698 182.43 39.625C183.003 37.8542 183.784 36.2656 184.773 34.8594C185.763 33.4531 186.922 32.2292 188.25 31.1875C189.604 30.1198 191.076 29.2344 192.664 28.5312C194.253 27.8021 195.919 27.2682 197.664 26.9297C199.435 26.5651 201.219 26.3828 203.016 26.3828C204.109 26.3828 205.268 26.474 206.492 26.6562C207.742 26.8125 208.979 27.0469 210.203 27.3594C211.427 27.6458 212.625 27.9974 213.797 28.4141C214.995 28.8047 216.102 29.2474 217.117 29.7422C218.133 30.2109 219.031 30.7188 219.812 31.2656C220.594 31.7865 221.219 32.3203 221.688 32.8672C222.052 31.8776 222.443 30.901 222.859 29.9375C223.302 28.9479 223.758 27.9583 224.227 26.9688C224.435 26.6042 224.695 26.3307 225.008 26.1484C225.346 25.9401 225.698 25.8359 226.062 25.8359C226.661 25.8359 227.156 26.0573 227.547 26.5C227.938 26.9167 228.133 27.3854 228.133 27.9062C228.133 28.1927 228.055 28.4922 227.898 28.8047C226.544 31.6172 225.424 34.4427 224.539 37.2812C223.68 40.0938 223.068 42.9453 222.703 45.8359C222.651 46.3568 222.43 46.7865 222.039 47.125C221.674 47.4375 221.232 47.5938 220.711 47.5938C220.112 47.5938 219.617 47.3724 219.227 46.9297C218.836 46.487 218.641 46.0443 218.641 45.6016V45.3672C218.953 42.6068 219.513 39.8854 220.32 37.2031C220.164 36.7344 219.76 36.2396 219.109 35.7188C218.458 35.1719 217.651 34.651 216.688 34.1562C215.75 33.6615 214.682 33.1927 213.484 32.75C212.286 32.2812 211.062 31.8776 209.812 31.5391C208.562 31.2005 207.312 30.9271 206.062 30.7188C204.812 30.5104 203.667 30.4062 202.625 30.4062C201.036 30.4062 199.513 30.5755 198.055 30.9141C196.596 31.2526 195.294 31.7995 194.148 32.5547C193.029 33.3099 192.117 34.2865 191.414 35.4844C190.711 36.6562 190.346 38.0755 190.32 39.7422C190.424 41.2005 190.815 42.4635 191.492 43.5312C192.195 44.5729 193.055 45.4844 194.07 46.2656C195.112 47.0469 196.284 47.7109 197.586 48.2578C198.888 48.7786 200.203 49.2344 201.531 49.625C202.885 49.9896 204.201 50.3151 205.477 50.6016C206.753 50.862 207.911 51.1094 208.953 51.3438C211.583 51.9688 214.096 52.6719 216.492 53.4531C218.888 54.2344 220.984 55.263 222.781 56.5391C224.604 57.8151 226.049 59.4427 227.117 61.4219C228.185 63.375 228.719 65.8359 228.719 68.8047ZM284.227 42.7109C284.227 42.7891 284.24 42.8932 284.266 43.0234C284.292 43.1276 284.305 43.2448 284.305 43.375C284.305 43.9219 284.083 44.4036 283.641 44.8203C283.224 45.237 282.755 45.4453 282.234 45.4453C281.818 45.4453 281.427 45.3151 281.062 45.0547C280.724 44.7943 280.477 44.4427 280.32 44C279.982 43.0104 279.656 41.9557 279.344 40.8359C279.031 39.6901 278.745 38.5703 278.484 37.4766C278.25 36.3828 278.029 35.3542 277.82 34.3906C277.612 33.4271 277.456 32.6068 277.352 31.9297C275.867 32.0078 274.174 32.0729 272.273 32.125C270.372 32.151 268.328 32.1641 266.141 32.1641L264.852 80.4062C266.987 80.4844 269.044 80.6406 271.023 80.875C271.596 80.9271 272.039 81.1484 272.352 81.5391C272.69 81.9036 272.859 82.3464 272.859 82.8672C272.859 83.5182 272.638 84.026 272.195 84.3906C271.779 84.7812 271.336 84.9766 270.867 84.9766H270.633C268.523 84.7161 266.44 84.5339 264.383 84.4297C262.326 84.3516 260.268 84.3125 258.211 84.3125C256.128 84.3125 254.083 84.3516 252.078 84.4297C250.073 84.5339 248.068 84.7161 246.062 84.9766H245.828C245.255 84.9766 244.76 84.7552 244.344 84.3125C243.953 83.8698 243.758 83.388 243.758 82.8672C243.758 82.3464 243.927 81.9036 244.266 81.5391C244.63 81.1484 245.073 80.9271 245.594 80.875C247.599 80.6406 249.565 80.4844 251.492 80.4062L252.391 31.9297C250.177 31.8516 248.094 31.7604 246.141 31.6562C244.214 31.526 242.482 31.3958 240.945 31.2656C240.789 31.9688 240.594 32.8281 240.359 33.8438C240.151 34.8594 239.904 35.9401 239.617 37.0859C239.357 38.2318 239.083 39.4036 238.797 40.6016C238.51 41.7734 238.211 42.8802 237.898 43.9219C237.768 44.3646 237.521 44.7292 237.156 45.0156C236.818 45.3021 236.427 45.4453 235.984 45.4453C235.385 45.4453 234.891 45.237 234.5 44.8203C234.109 44.3776 233.914 43.8958 233.914 43.375C233.914 43.2969 233.914 43.2057 233.914 43.1016C233.914 42.9714 233.94 42.8672 233.992 42.7891C234.383 41.4089 234.773 39.8984 235.164 38.2578C235.555 36.6172 235.906 35.0807 236.219 33.6484C236.557 32.2161 236.831 31.0182 237.039 30.0547C237.247 29.0911 237.352 28.5964 237.352 28.5703C237.482 28.0755 237.716 27.6849 238.055 27.3984C238.419 27.112 238.849 26.9688 239.344 26.9688H239.656C241.01 27.151 242.651 27.3073 244.578 27.4375C246.531 27.5677 248.628 27.6849 250.867 27.7891C253.133 27.8672 255.477 27.9323 257.898 27.9844C260.32 28.0365 262.69 28.0625 265.008 28.0625C267.846 28.0625 270.464 28.0365 272.859 27.9844C275.255 27.9062 277.26 27.8021 278.875 27.6719H279.031C279.5 27.6719 279.93 27.8411 280.32 28.1797C280.711 28.4922 280.945 28.8828 281.023 29.3516C281.023 29.3776 281.062 29.599 281.141 30.0156C281.219 30.4323 281.323 30.9922 281.453 31.6953C281.583 32.3984 281.74 33.2057 281.922 34.1172C282.13 35.0286 282.352 35.9792 282.586 36.9688C282.82 37.9323 283.068 38.9219 283.328 39.9375C283.615 40.9271 283.914 41.8516 284.227 42.7109ZM338.172 44C338.172 42.1771 337.872 40.5885 337.273 39.2344C336.674 37.8542 335.828 36.6693 334.734 35.6797C333.667 34.6901 332.378 33.8828 330.867 33.2578C329.357 32.6068 327.703 32.099 325.906 31.7344C324.109 31.3438 322.182 31.0833 320.125 30.9531C318.094 30.7969 315.997 30.7188 313.836 30.7188C313.237 30.7188 312.69 30.7188 312.195 30.7188C311.701 30.7188 311.232 30.7448 310.789 30.7969L310.086 57.3594C311.076 57.5677 312.156 57.7109 313.328 57.7891C314.5 57.8672 315.711 57.9062 316.961 57.9062C318.497 57.9062 320.086 57.8151 321.727 57.6328C323.367 57.4505 324.969 57.151 326.531 56.7344C328.12 56.3177 329.617 55.7708 331.023 55.0938C332.43 54.3906 333.654 53.5312 334.695 52.5156C335.763 51.474 336.609 50.25 337.234 48.8438C337.859 47.4375 338.172 45.8229 338.172 44ZM344.656 68.7266C344.656 68.7786 344.669 68.9219 344.695 69.1562C344.721 69.3646 344.734 69.6771 344.734 70.0938C344.734 72.2031 344.409 74.1562 343.758 75.9531C343.133 77.75 342.234 79.2995 341.062 80.6016C339.891 81.8776 338.471 82.8802 336.805 83.6094C335.138 84.3385 333.276 84.7031 331.219 84.7031H331.102C329.201 84.651 327.521 84.3385 326.062 83.7656C324.63 83.1927 323.367 82.4375 322.273 81.5C321.206 80.5365 320.307 79.4167 319.578 78.1406C318.849 76.8646 318.263 75.4974 317.82 74.0391C317.378 72.5547 317.052 71.0182 316.844 69.4297C316.661 67.8411 316.57 66.2656 316.57 64.7031C316.57 64.2344 316.583 63.7786 316.609 63.3359C316.635 62.8672 316.648 62.4505 316.648 62.0859C315.477 62.0859 314.331 62.0339 313.211 61.9297C312.117 61.8255 311.049 61.6953 310.008 61.5391L309.422 81.7734C309.422 82.3984 309.214 82.8932 308.797 83.2578C308.406 83.5964 307.924 83.7656 307.352 83.7656C307.326 83.7656 306.792 83.7786 305.75 83.8047C304.734 83.8047 303.419 83.8307 301.805 83.8828C300.19 83.9349 298.406 84.026 296.453 84.1562C294.5 84.2865 292.586 84.4688 290.711 84.7031H290.477C289.878 84.7031 289.383 84.4948 288.992 84.0781C288.602 83.6875 288.406 83.2318 288.406 82.7109C288.406 82.1901 288.562 81.7344 288.875 81.3438C289.214 80.9531 289.643 80.7188 290.164 80.6406C291.128 80.5104 292.104 80.4062 293.094 80.3281C294.109 80.25 295.099 80.1719 296.062 80.0938L296.961 31.9297C295.034 32.2422 293.576 32.5156 292.586 32.75C291.596 32.9844 291.076 33.1016 291.023 33.1016C290.841 33.2318 290.659 33.2969 290.477 33.2969C289.878 33.2969 289.383 33.0885 288.992 32.6719C288.602 32.2552 288.406 31.7604 288.406 31.1875C288.406 30.7448 288.536 30.3542 288.797 30.0156C289.057 29.651 289.409 29.4036 289.852 29.2734C289.93 29.2474 290.477 29.0911 291.492 28.8047C292.508 28.5182 294.005 28.2188 295.984 27.9062C297.99 27.5938 300.464 27.3073 303.406 27.0469C306.375 26.7865 309.852 26.6562 313.836 26.6562C316.388 26.7865 318.849 26.9688 321.219 27.2031C323.615 27.4375 325.867 27.8021 327.977 28.2969C330.086 28.7656 332.013 29.4036 333.758 30.2109C335.503 30.9922 337 32.0078 338.25 33.2578C339.526 34.5078 340.503 36.0182 341.18 37.7891C341.883 39.5339 342.234 41.6042 342.234 44C342.234 45.901 341.935 47.6979 341.336 49.3906C340.763 51.0573 339.956 52.5807 338.914 53.9609C337.872 55.3151 336.609 56.5 335.125 57.5156C333.667 58.5052 332.065 59.2865 330.32 59.8594C330.268 60.4583 330.229 61.0703 330.203 61.6953C330.177 62.3203 330.164 62.9583 330.164 63.6094C330.164 64.1562 330.177 64.9245 330.203 65.9141C330.229 66.9036 330.294 67.9844 330.398 69.1562C330.503 70.3281 330.659 71.526 330.867 72.75C331.102 73.974 331.401 75.0938 331.766 76.1094C332.156 77.099 332.638 77.9193 333.211 78.5703C333.784 79.1953 334.474 79.5078 335.281 79.5078C336.323 79.5078 337.182 79.1562 337.859 78.4531C338.536 77.75 339.083 76.9036 339.5 75.9141C339.917 74.8984 340.203 73.8568 340.359 72.7891C340.542 71.7214 340.633 70.8229 340.633 70.0938C340.633 69.8073 340.62 69.5729 340.594 69.3906C340.568 69.2083 340.555 69.0391 340.555 68.8828C340.555 68.2839 340.763 67.8021 341.18 67.4375C341.622 67.0729 342.104 66.8906 342.625 66.8906C343.146 66.8906 343.602 67.0729 343.992 67.4375C344.383 67.776 344.604 68.2057 344.656 68.7266ZM386.648 63.4531C385.685 60.5104 384.669 57.8021 383.602 55.3281C382.534 52.8281 381.479 50.5885 380.438 48.6094C379.422 46.6042 378.445 44.8594 377.508 43.375C376.596 41.8646 375.815 40.6276 375.164 39.6641C372.742 43.7786 370.568 47.8021 368.641 51.7344C366.74 55.6406 365.047 59.5469 363.562 63.4531C365.646 63.6875 367.651 63.8828 369.578 64.0391C371.505 64.1693 373.419 64.2344 375.32 64.2344C377.195 64.2344 379.057 64.1693 380.906 64.0391C382.781 63.8828 384.695 63.6875 386.648 63.4531ZM413.289 84.8984C413.237 84.8984 413.185 84.8854 413.133 84.8594C413.081 84.8594 413.029 84.8333 412.977 84.7812C410.607 84.4167 408.263 84.1562 405.945 84C403.654 83.8438 401.362 83.7656 399.07 83.7656C396.805 83.7656 394.565 83.8438 392.352 84C390.164 84.1562 387.977 84.4167 385.789 84.7812C385.737 84.8333 385.685 84.8594 385.633 84.8594C385.581 84.8854 385.529 84.8984 385.477 84.8984C384.904 84.8984 384.409 84.6771 383.992 84.2344C383.602 83.7917 383.406 83.3099 383.406 82.7891C383.406 82.3203 383.562 81.8906 383.875 81.5C384.214 81.1094 384.643 80.875 385.164 80.7969C386.206 80.5885 387.26 80.4323 388.328 80.3281C389.396 80.1979 390.49 80.0677 391.609 79.9375C391.479 79.4427 391.323 78.8307 391.141 78.1016C390.958 77.3464 390.711 76.4609 390.398 75.4453C390.112 74.4297 389.76 73.2578 389.344 71.9297C388.953 70.5755 388.484 69.0521 387.938 67.3594C385.724 67.6719 383.589 67.9193 381.531 68.1016C379.474 68.2578 377.404 68.3359 375.32 68.3359C373.211 68.3359 371.076 68.2578 368.914 68.1016C366.753 67.9193 364.487 67.6719 362.117 67.3594C360.737 71.474 359.617 75.5495 358.758 79.5859C360.372 79.638 361.987 79.7682 363.602 79.9766C365.242 80.1589 366.909 80.4323 368.602 80.7969C369.07 80.875 369.448 81.1094 369.734 81.5C370.047 81.8906 370.203 82.3203 370.203 82.7891C370.203 83.388 369.969 83.8828 369.5 84.2734C369.057 84.6901 368.589 84.8984 368.094 84.8984C368.016 84.8984 367.951 84.8724 367.898 84.8203C367.846 84.7943 367.781 84.7812 367.703 84.7812C365.984 84.4167 364.292 84.1432 362.625 83.9609C360.984 83.7786 359.344 83.6875 357.703 83.6875C356.089 83.6875 354.5 83.7786 352.938 83.9609C351.375 84.1432 349.786 84.4167 348.172 84.7812C348.094 84.7812 348.029 84.7943 347.977 84.8203C347.924 84.8724 347.859 84.8984 347.781 84.8984C347.182 84.8984 346.688 84.6901 346.297 84.2734C345.906 83.8568 345.711 83.362 345.711 82.7891C345.711 82.3203 345.854 81.9036 346.141 81.5391C346.427 81.1745 346.818 80.9271 347.312 80.7969C348.484 80.5104 349.656 80.2891 350.828 80.1328C352.026 79.9766 353.25 79.8464 354.5 79.7422C355.385 75.4453 356.544 71.1484 357.977 66.8516C359.409 62.5547 361.115 58.2188 363.094 53.8438C365.099 49.4427 367.391 44.9766 369.969 40.4453C372.547 35.9141 375.451 31.2526 378.68 26.4609C378.914 26.1484 379.174 25.9271 379.461 25.7969C379.773 25.6667 380.073 25.6016 380.359 25.6016C380.672 25.6016 380.971 25.6667 381.258 25.7969C381.544 25.901 381.779 26.0703 381.961 26.3047C387.43 33.2839 392.117 41.2005 396.023 50.0547C399.956 58.8828 403.185 68.8177 405.711 79.8594C408.367 80.0938 411.01 80.4062 413.641 80.7969C414.161 80.875 414.578 81.1094 414.891 81.5C415.229 81.8906 415.398 82.3203 415.398 82.7891C415.398 83.362 415.164 83.8568 414.695 84.2734C414.253 84.6901 413.784 84.8984 413.289 84.8984ZM490.203 68.8047C490.203 71.6432 489.552 74.1823 488.25 76.4219C486.948 78.6354 485.268 80.5104 483.211 82.0469C481.154 83.5573 478.862 84.7161 476.336 85.5234C473.836 86.3307 471.362 86.7344 468.914 86.7344C464.331 86.7344 460.099 85.901 456.219 84.2344C452.339 82.5677 448.888 80.1198 445.867 76.8906V77.8281C445.867 78.6615 445.88 79.4818 445.906 80.2891C445.932 81.0964 445.971 81.9036 446.023 82.7109V82.8672C446.023 83.388 445.841 83.8438 445.477 84.2344C445.138 84.625 444.682 84.8464 444.109 84.8984C443.51 84.8984 443.016 84.7161 442.625 84.3516C442.234 83.987 442.013 83.5182 441.961 82.9453C441.909 82.112 441.87 81.2786 441.844 80.4453C441.818 79.5859 441.805 78.7396 441.805 77.9062C441.805 75.25 441.935 72.8021 442.195 70.5625C442.456 68.2969 442.807 66.0573 443.25 63.8438C443.38 63.349 443.615 62.9453 443.953 62.6328C444.318 62.3203 444.747 62.1641 445.242 62.1641C445.841 62.1641 446.336 62.3984 446.727 62.8672C447.117 63.3099 447.312 63.7656 447.312 64.2344C447.312 64.2865 447.312 64.3516 447.312 64.4297C447.312 64.4818 447.286 64.5469 447.234 64.625C447.104 65.224 446.987 65.7839 446.883 66.3047C446.805 66.7995 446.714 67.2943 446.609 67.7891C446.531 68.2578 446.453 68.7526 446.375 69.2734C446.323 69.7682 446.258 70.3281 446.18 70.9531C449.096 74.7031 452.43 77.5938 456.18 79.625C459.93 81.6302 464.148 82.6328 468.836 82.6328C470.164 82.6328 471.583 82.5156 473.094 82.2812C474.63 82.0469 476.036 81.6302 477.312 81.0312C478.615 80.4062 479.682 79.5859 480.516 78.5703C481.375 77.5286 481.805 76.2135 481.805 74.625C481.805 73.5052 481.505 72.4896 480.906 71.5781C480.307 70.6406 479.526 69.8073 478.562 69.0781C477.599 68.349 476.505 67.7109 475.281 67.1641C474.083 66.5911 472.872 66.0964 471.648 65.6797C470.424 65.263 469.253 64.9245 468.133 64.6641C467.039 64.3776 466.102 64.1562 465.32 64C463.471 63.6094 461.635 63.1797 459.812 62.7109C457.99 62.2161 456.258 61.6302 454.617 60.9531C452.977 60.276 451.453 59.4818 450.047 58.5703C448.641 57.6589 447.417 56.5911 446.375 55.3672C445.359 54.1172 444.552 52.6719 443.953 51.0312C443.38 49.3906 443.094 47.5026 443.094 45.3672C443.094 43.2839 443.367 41.3698 443.914 39.625C444.487 37.8542 445.268 36.2656 446.258 34.8594C447.247 33.4531 448.406 32.2292 449.734 31.1875C451.089 30.1198 452.56 29.2344 454.148 28.5312C455.737 27.8021 457.404 27.2682 459.148 26.9297C460.919 26.5651 462.703 26.3828 464.5 26.3828C465.594 26.3828 466.753 26.474 467.977 26.6562C469.227 26.8125 470.464 27.0469 471.688 27.3594C472.911 27.6458 474.109 27.9974 475.281 28.4141C476.479 28.8047 477.586 29.2474 478.602 29.7422C479.617 30.2109 480.516 30.7188 481.297 31.2656C482.078 31.7865 482.703 32.3203 483.172 32.8672C483.536 31.8776 483.927 30.901 484.344 29.9375C484.786 28.9479 485.242 27.9583 485.711 26.9688C485.919 26.6042 486.18 26.3307 486.492 26.1484C486.831 25.9401 487.182 25.8359 487.547 25.8359C488.146 25.8359 488.641 26.0573 489.031 26.5C489.422 26.9167 489.617 27.3854 489.617 27.9062C489.617 28.1927 489.539 28.4922 489.383 28.8047C488.029 31.6172 486.909 34.4427 486.023 37.2812C485.164 40.0938 484.552 42.9453 484.188 45.8359C484.135 46.3568 483.914 46.7865 483.523 47.125C483.159 47.4375 482.716 47.5938 482.195 47.5938C481.596 47.5938 481.102 47.3724 480.711 46.9297C480.32 46.487 480.125 46.0443 480.125 45.6016V45.3672C480.438 42.6068 480.997 39.8854 481.805 37.2031C481.648 36.7344 481.245 36.2396 480.594 35.7188C479.943 35.1719 479.135 34.651 478.172 34.1562C477.234 33.6615 476.167 33.1927 474.969 32.75C473.771 32.2812 472.547 31.8776 471.297 31.5391C470.047 31.2005 468.797 30.9271 467.547 30.7188C466.297 30.5104 465.151 30.4062 464.109 30.4062C462.521 30.4062 460.997 30.5755 459.539 30.9141C458.081 31.2526 456.779 31.7995 455.633 32.5547C454.513 33.3099 453.602 34.2865 452.898 35.4844C452.195 36.6562 451.831 38.0755 451.805 39.7422C451.909 41.2005 452.299 42.4635 452.977 43.5312C453.68 44.5729 454.539 45.4844 455.555 46.2656C456.596 47.0469 457.768 47.7109 459.07 48.2578C460.372 48.7786 461.688 49.2344 463.016 49.625C464.37 49.9896 465.685 50.3151 466.961 50.6016C468.237 50.862 469.396 51.1094 470.438 51.3438C473.068 51.9688 475.581 52.6719 477.977 53.4531C480.372 54.2344 482.469 55.263 484.266 56.5391C486.089 57.8151 487.534 59.4427 488.602 61.4219C489.669 63.375 490.203 65.8359 490.203 68.8047ZM542.352 82.9453C542.273 83.4661 542.039 83.8828 541.648 84.1953C541.258 84.5339 540.802 84.7031 540.281 84.7031H540.203C533.198 84.2344 526.362 84 519.695 84C512.924 84 506.401 84.2344 500.125 84.7031H499.93C499.331 84.651 498.836 84.4427 498.445 84.0781C498.055 83.7135 497.859 83.2318 497.859 82.6328C497.859 82.112 498.042 81.6693 498.406 81.3047C498.771 80.9141 499.227 80.6927 499.773 80.6406C500.607 80.5625 501.44 80.5104 502.273 80.4844C503.133 80.4323 503.979 80.3802 504.812 80.3281V32.7109C503.979 32.6589 503.146 32.6328 502.312 32.6328C501.505 32.6328 500.685 32.6328 499.852 32.6328C499.305 32.5807 498.836 32.3724 498.445 32.0078C498.055 31.6172 497.859 31.1354 497.859 30.5625C497.859 29.9896 498.068 29.5078 498.484 29.1172C498.901 28.7005 499.383 28.4922 499.93 28.4922C500.919 28.5443 501.87 28.5703 502.781 28.5703C503.719 28.5703 504.643 28.5703 505.555 28.5703C511.102 28.5703 516.596 28.388 522.039 28.0234C527.482 27.6589 532.911 27.112 538.328 26.3828H538.68C539.201 26.3828 539.643 26.5651 540.008 26.9297C540.372 27.2682 540.594 27.6719 540.672 28.1406L542.352 41.3438V41.6172C542.352 42.2161 542.13 42.6979 541.688 43.0625C541.271 43.4271 540.802 43.6094 540.281 43.6094C539.786 43.6094 539.344 43.4531 538.953 43.1406C538.589 42.8021 538.354 42.3724 538.25 41.8516L536.844 30.7188C533.823 31.1354 530.789 31.474 527.742 31.7344C524.721 31.9688 521.674 32.1641 518.602 32.3203V58.0625C519.227 58.0365 520.06 57.9974 521.102 57.9453C522.143 57.8932 523.263 57.8151 524.461 57.7109C525.685 57.6068 526.922 57.4896 528.172 57.3594C529.448 57.2031 530.633 57.0208 531.727 56.8125H532.117C532.664 56.8125 533.146 57.0208 533.562 57.4375C533.979 57.8281 534.188 58.2839 534.188 58.8047C534.188 59.3255 534.031 59.7682 533.719 60.1328C533.406 60.4974 533.003 60.7448 532.508 60.875C531.31 61.1094 530.021 61.3047 528.641 61.4609C527.286 61.6172 525.958 61.7474 524.656 61.8516C523.38 61.9297 522.208 61.9948 521.141 62.0469C520.073 62.099 519.227 62.138 518.602 62.1641V79.9375H519.695C522.794 79.9375 525.906 79.9766 529.031 80.0547C532.182 80.1328 535.346 80.276 538.523 80.4844L539.93 70.0156C540.034 69.4948 540.268 69.0781 540.633 68.7656C541.023 68.4271 541.466 68.2578 541.961 68.2578C542.586 68.2578 543.081 68.4792 543.445 68.9219C543.836 69.3646 544.031 69.8073 544.031 70.25V70.5625L542.352 82.9453ZM594.695 82.8672C594.617 83.388 594.383 83.7917 593.992 84.0781C593.602 84.3906 593.159 84.5469 592.664 84.5469H592.43C591.362 84.4427 590.086 84.3516 588.602 84.2734C587.117 84.1953 585.49 84.1302 583.719 84.0781C581.974 84.026 580.112 83.987 578.133 83.9609C576.18 83.9349 574.201 83.9219 572.195 83.9219C570.19 83.9219 568.211 83.9349 566.258 83.9609C564.305 83.987 562.456 84.026 560.711 84.0781C558.992 84.1302 557.391 84.1953 555.906 84.2734C554.448 84.3516 553.211 84.4427 552.195 84.5469H552.039C551.518 84.5469 551.062 84.3776 550.672 84.0391C550.281 83.7005 550.047 83.2057 549.969 82.5547C549.969 82.0339 550.138 81.5781 550.477 81.1875C550.841 80.7969 551.284 80.5625 551.805 80.4844C552.56 80.4062 553.419 80.3411 554.383 80.2891C555.372 80.237 556.453 80.1719 557.625 80.0938L558.523 30.7188C556.284 30.5625 554.018 30.3281 551.727 30.0156C551.206 29.9375 550.776 29.7031 550.438 29.3125C550.125 28.9219 549.969 28.4792 549.969 27.9844C550.047 27.3073 550.281 26.7995 550.672 26.4609C551.062 26.0964 551.518 25.9141 552.039 25.9141H552.273C555.008 26.3307 557.716 26.6302 560.398 26.8125C563.107 26.9688 565.789 27.0469 568.445 27.0469C570.06 27.0469 571.648 27.0208 573.211 26.9688C574.773 26.9167 576.336 26.8125 577.898 26.6562H578.055C578.654 26.6562 579.148 26.8646 579.539 27.2812C579.93 27.6719 580.125 28.1536 580.125 28.7266C580.125 29.2474 579.943 29.7031 579.578 30.0938C579.214 30.4583 578.758 30.6667 578.211 30.7188C577.247 30.7969 576.271 30.875 575.281 30.9531C574.318 31.0052 573.341 31.0573 572.352 31.1094L571.062 79.8594H572.195C573.966 79.8594 575.724 79.8724 577.469 79.8984C579.214 79.9245 580.893 79.9635 582.508 80.0156C584.148 80.0417 585.685 80.0807 587.117 80.1328C588.549 80.1849 589.839 80.25 590.984 80.3281L593.875 64C593.953 63.4792 594.188 63.0625 594.578 62.75C594.969 62.4115 595.398 62.2422 595.867 62.2422C596.44 62.2422 596.935 62.4635 597.352 62.9062C597.768 63.3229 597.977 63.7917 597.977 64.3125C597.977 64.3906 597.964 64.4557 597.938 64.5078C597.911 64.5599 597.898 64.625 597.898 64.7031L594.695 82.8672ZM647.508 82.9453C647.43 83.4661 647.195 83.8828 646.805 84.1953C646.414 84.5339 645.958 84.7031 645.438 84.7031H645.359C638.354 84.2344 631.518 84 624.852 84C618.081 84 611.557 84.2344 605.281 84.7031H605.086C604.487 84.651 603.992 84.4427 603.602 84.0781C603.211 83.7135 603.016 83.2318 603.016 82.6328C603.016 82.112 603.198 81.6693 603.562 81.3047C603.927 80.9141 604.383 80.6927 604.93 80.6406C605.763 80.5625 606.596 80.5104 607.43 80.4844C608.289 80.4323 609.135 80.3802 609.969 80.3281V32.7109C609.135 32.6589 608.302 32.6328 607.469 32.6328C606.661 32.6328 605.841 32.6328 605.008 32.6328C604.461 32.5807 603.992 32.3724 603.602 32.0078C603.211 31.6172 603.016 31.1354 603.016 30.5625C603.016 29.9896 603.224 29.5078 603.641 29.1172C604.057 28.7005 604.539 28.4922 605.086 28.4922C606.076 28.5443 607.026 28.5703 607.938 28.5703C608.875 28.5703 609.799 28.5703 610.711 28.5703C616.258 28.5703 621.753 28.388 627.195 28.0234C632.638 27.6589 638.068 27.112 643.484 26.3828H643.836C644.357 26.3828 644.799 26.5651 645.164 26.9297C645.529 27.2682 645.75 27.6719 645.828 28.1406L647.508 41.3438V41.6172C647.508 42.2161 647.286 42.6979 646.844 43.0625C646.427 43.4271 645.958 43.6094 645.438 43.6094C644.943 43.6094 644.5 43.4531 644.109 43.1406C643.745 42.8021 643.51 42.3724 643.406 41.8516L642 30.7188C638.979 31.1354 635.945 31.474 632.898 31.7344C629.878 31.9688 626.831 32.1641 623.758 32.3203V58.0625C624.383 58.0365 625.216 57.9974 626.258 57.9453C627.299 57.8932 628.419 57.8151 629.617 57.7109C630.841 57.6068 632.078 57.4896 633.328 57.3594C634.604 57.2031 635.789 57.0208 636.883 56.8125H637.273C637.82 56.8125 638.302 57.0208 638.719 57.4375C639.135 57.8281 639.344 58.2839 639.344 58.8047C639.344 59.3255 639.188 59.7682 638.875 60.1328C638.562 60.4974 638.159 60.7448 637.664 60.875C636.466 61.1094 635.177 61.3047 633.797 61.4609C632.443 61.6172 631.115 61.7474 629.812 61.8516C628.536 61.9297 627.365 61.9948 626.297 62.0469C625.229 62.099 624.383 62.138 623.758 62.1641V79.9375H624.852C627.951 79.9375 631.062 79.9766 634.188 80.0547C637.339 80.1328 640.503 80.276 643.68 80.4844L645.086 70.0156C645.19 69.4948 645.424 69.0781 645.789 68.7656C646.18 68.4271 646.622 68.2578 647.117 68.2578C647.742 68.2578 648.237 68.4792 648.602 68.9219C648.992 69.3646 649.188 69.8073 649.188 70.25V70.5625L647.508 82.9453ZM702.977 46.6562C702.846 47.099 702.599 47.4375 702.234 47.6719C701.87 47.8802 701.466 47.9844 701.023 47.9844C700.424 47.9844 699.93 47.763 699.539 47.3203C699.148 46.8776 698.953 46.4349 698.953 45.9922C698.953 45.7839 699.005 45.5755 699.109 45.3672L701.609 38.0625C700.958 37.0208 700.164 36.0312 699.227 35.0938C698.315 34.1302 697.312 33.2839 696.219 32.5547C695.125 31.8255 693.966 31.2526 692.742 30.8359C691.518 30.3932 690.281 30.1719 689.031 30.1719C686.661 30.1719 684.539 30.5365 682.664 31.2656C680.815 31.9948 679.188 32.9844 677.781 34.2344C676.401 35.4844 675.216 36.9557 674.227 38.6484C673.237 40.3151 672.43 42.099 671.805 44C671.206 45.901 670.763 47.8672 670.477 49.8984C670.216 51.9036 670.086 53.8828 670.086 55.8359C670.086 57.5286 670.177 59.3385 670.359 61.2656C670.542 63.1667 670.854 65.0807 671.297 67.0078C671.74 68.9089 672.326 70.7448 673.055 72.5156C673.784 74.2604 674.682 75.8099 675.75 77.1641C676.844 78.5182 678.12 79.599 679.578 80.4062C681.036 81.2135 682.729 81.6172 684.656 81.6172C686.922 81.6172 689.07 81.2917 691.102 80.6406C693.159 79.9896 695.021 79.0651 696.688 77.8672C698.38 76.6432 699.852 75.1849 701.102 73.4922C702.378 71.7995 703.367 69.9115 704.07 67.8281C704.201 67.3594 704.448 66.9818 704.812 66.6953C705.177 66.3828 705.594 66.2266 706.062 66.2266C706.635 66.2266 707.117 66.4479 707.508 66.8906C707.898 67.3333 708.094 67.8151 708.094 68.3359V68.8047C708.068 68.8568 707.977 69.1172 707.82 69.5859C707.69 70.0547 707.456 70.6667 707.117 71.4219C706.805 72.151 706.375 72.9974 705.828 73.9609C705.307 74.8984 704.643 75.875 703.836 76.8906C702.638 78.375 701.297 79.6641 699.812 80.7578C698.328 81.8516 696.753 82.763 695.086 83.4922C693.445 84.2214 691.74 84.7682 689.969 85.1328C688.198 85.4974 686.427 85.6797 684.656 85.6797C680.203 85.6016 676.206 84.8854 672.664 83.5312C669.148 82.151 666.154 80.237 663.68 77.7891C661.232 75.3151 659.344 72.3464 658.016 68.8828C656.714 65.4193 656.062 61.5521 656.062 57.2812C656.062 53.3229 656.479 49.7943 657.312 46.6953C658.146 43.5964 659.279 40.888 660.711 38.5703C662.169 36.2266 663.875 34.2474 665.828 32.6328C667.781 30.9922 669.852 29.6641 672.039 28.6484C674.253 27.6328 676.544 26.9036 678.914 26.4609C681.284 25.9922 683.615 25.7578 685.906 25.7578C688.198 25.7578 690.255 26.0052 692.078 26.5C693.901 26.9688 695.529 27.5807 696.961 28.3359C698.393 29.0911 699.617 29.9245 700.633 30.8359C701.674 31.7214 702.534 32.5677 703.211 33.375L705.359 27.2031C705.516 26.7604 705.776 26.4089 706.141 26.1484C706.505 25.888 706.883 25.7578 707.273 25.7578C707.846 25.7578 708.328 25.9792 708.719 26.4219C709.135 26.8385 709.344 27.3073 709.344 27.8281C709.344 28.0625 709.292 28.2839 709.188 28.4922L702.977 46.6562ZM762.195 46.6562C762.065 47.099 761.818 47.4375 761.453 47.6719C761.089 47.8802 760.685 47.9844 760.242 47.9844C759.643 47.9844 759.148 47.763 758.758 47.3203C758.367 46.8776 758.172 46.4349 758.172 45.9922C758.172 45.7839 758.224 45.5755 758.328 45.3672L760.828 38.0625C760.177 37.0208 759.383 36.0312 758.445 35.0938C757.534 34.1302 756.531 33.2839 755.438 32.5547C754.344 31.8255 753.185 31.2526 751.961 30.8359C750.737 30.3932 749.5 30.1719 748.25 30.1719C745.88 30.1719 743.758 30.5365 741.883 31.2656C740.034 31.9948 738.406 32.9844 737 34.2344C735.62 35.4844 734.435 36.9557 733.445 38.6484C732.456 40.3151 731.648 42.099 731.023 44C730.424 45.901 729.982 47.8672 729.695 49.8984C729.435 51.9036 729.305 53.8828 729.305 55.8359C729.305 57.5286 729.396 59.3385 729.578 61.2656C729.76 63.1667 730.073 65.0807 730.516 67.0078C730.958 68.9089 731.544 70.7448 732.273 72.5156C733.003 74.2604 733.901 75.8099 734.969 77.1641C736.062 78.5182 737.339 79.599 738.797 80.4062C740.255 81.2135 741.948 81.6172 743.875 81.6172C746.141 81.6172 748.289 81.2917 750.32 80.6406C752.378 79.9896 754.24 79.0651 755.906 77.8672C757.599 76.6432 759.07 75.1849 760.32 73.4922C761.596 71.7995 762.586 69.9115 763.289 67.8281C763.419 67.3594 763.667 66.9818 764.031 66.6953C764.396 66.3828 764.812 66.2266 765.281 66.2266C765.854 66.2266 766.336 66.4479 766.727 66.8906C767.117 67.3333 767.312 67.8151 767.312 68.3359V68.8047C767.286 68.8568 767.195 69.1172 767.039 69.5859C766.909 70.0547 766.674 70.6667 766.336 71.4219C766.023 72.151 765.594 72.9974 765.047 73.9609C764.526 74.8984 763.862 75.875 763.055 76.8906C761.857 78.375 760.516 79.6641 759.031 80.7578C757.547 81.8516 755.971 82.763 754.305 83.4922C752.664 84.2214 750.958 84.7682 749.188 85.1328C747.417 85.4974 745.646 85.6797 743.875 85.6797C739.422 85.6016 735.424 84.8854 731.883 83.5312C728.367 82.151 725.372 80.237 722.898 77.7891C720.451 75.3151 718.562 72.3464 717.234 68.8828C715.932 65.4193 715.281 61.5521 715.281 57.2812C715.281 53.3229 715.698 49.7943 716.531 46.6953C717.365 43.5964 718.497 40.888 719.93 38.5703C721.388 36.2266 723.094 34.2474 725.047 32.6328C727 30.9922 729.07 29.6641 731.258 28.6484C733.471 27.6328 735.763 26.9036 738.133 26.4609C740.503 25.9922 742.833 25.7578 745.125 25.7578C747.417 25.7578 749.474 26.0052 751.297 26.5C753.12 26.9688 754.747 27.5807 756.18 28.3359C757.612 29.0911 758.836 29.9245 759.852 30.8359C760.893 31.7214 761.753 32.5677 762.43 33.375L764.578 27.2031C764.734 26.7604 764.995 26.4089 765.359 26.1484C765.724 25.888 766.102 25.7578 766.492 25.7578C767.065 25.7578 767.547 25.9792 767.938 26.4219C768.354 26.8385 768.562 27.3073 768.562 27.8281C768.562 28.0625 768.51 28.2839 768.406 28.4922L762.195 46.6562ZM803.797 29.4297C803.797 29.9505 803.615 30.4062 803.25 30.7969C802.885 31.1615 802.43 31.3698 801.883 31.4219C800.919 31.526 799.956 31.6172 798.992 31.6953C798.029 31.7474 797.039 31.7995 796.023 31.8516L794.773 80.0156C795.763 80.0938 796.766 80.1719 797.781 80.25C798.823 80.3281 799.865 80.4062 800.906 80.4844C801.505 80.6146 801.961 80.888 802.273 81.3047C802.586 81.6953 802.742 82.1641 802.742 82.7109C802.69 83.2839 802.456 83.7266 802.039 84.0391C801.648 84.3776 801.193 84.5469 800.672 84.5469H800.516C798.432 84.3385 796.349 84.1823 794.266 84.0781C792.208 83.974 790.138 83.9219 788.055 83.9219C785.997 83.9219 783.953 83.974 781.922 84.0781C779.917 84.1823 777.898 84.3385 775.867 84.5469H775.711C775.112 84.5469 774.617 84.3516 774.227 83.9609C773.836 83.5443 773.641 83.0755 773.641 82.5547C773.641 82.0339 773.81 81.5781 774.148 81.1875C774.513 80.7969 774.956 80.5625 775.477 80.4844C776.44 80.4062 777.404 80.3281 778.367 80.25C779.357 80.1719 780.333 80.0938 781.297 80.0156L782.195 31.4219C779.956 31.2656 777.69 31.0312 775.398 30.7188C774.878 30.6406 774.448 30.4062 774.109 30.0156C773.797 29.625 773.641 29.1953 773.641 28.7266C773.641 28.0495 773.875 27.5417 774.344 27.2031C774.812 26.8385 775.268 26.6562 775.711 26.6562H775.945C778.706 27.0469 781.427 27.3333 784.109 27.5156C786.792 27.6719 789.461 27.75 792.117 27.75C793.732 27.75 795.32 27.724 796.883 27.6719C798.445 27.6198 800.008 27.5156 801.57 27.3594H801.727C802.326 27.3594 802.82 27.5677 803.211 27.9844C803.602 28.401 803.797 28.8828 803.797 29.4297ZM862.391 56.2266C862.391 54.4557 862.156 52.6068 861.688 50.6797C861.219 48.7266 860.555 46.8255 859.695 44.9766C858.862 43.1016 857.846 41.3307 856.648 39.6641C855.477 37.9714 854.174 36.5 852.742 35.25C851.336 33.974 849.826 32.9714 848.211 32.2422C846.596 31.487 844.943 31.1094 843.25 31.1094C840.958 31.1094 838.888 31.4479 837.039 32.125C835.19 32.8021 833.536 33.7266 832.078 34.8984C830.646 36.0443 829.396 37.4115 828.328 39C827.26 40.5885 826.375 42.2943 825.672 44.1172C824.995 45.9141 824.487 47.8021 824.148 49.7812C823.81 51.7344 823.641 53.6745 823.641 55.6016C823.641 57.7109 823.758 59.8203 823.992 61.9297C824.253 64.0391 824.669 66.0703 825.242 68.0234C825.841 69.9505 826.596 71.7604 827.508 73.4531C828.445 75.1198 829.591 76.5781 830.945 77.8281C832.299 79.0521 833.875 80.0156 835.672 80.7188C837.495 81.4219 839.565 81.7734 841.883 81.7734C843.732 81.7734 845.516 81.4089 847.234 80.6797C848.979 79.9505 850.607 78.974 852.117 77.75C853.654 76.5 855.047 75.0417 856.297 73.375C857.573 71.6823 858.654 69.8984 859.539 68.0234C860.451 66.1224 861.154 64.1693 861.648 62.1641C862.143 60.1328 862.391 58.1536 862.391 56.2266ZM866.453 56.2266C866.453 58.9609 866.102 61.6042 865.398 64.1562C864.721 66.6823 863.758 69.0651 862.508 71.3047C861.284 73.5443 859.799 75.5885 858.055 77.4375C856.31 79.2865 854.383 80.875 852.273 82.2031C850.19 83.5312 847.951 84.5599 845.555 85.2891C843.159 86.0182 840.685 86.3828 838.133 86.3828C835.555 86.3828 833.055 86.0182 830.633 85.2891C828.237 84.5859 825.997 83.5833 823.914 82.2812C821.831 80.9531 819.917 79.3776 818.172 77.5547C816.453 75.7057 814.982 73.6745 813.758 71.4609C812.534 69.2214 811.583 66.8125 810.906 64.2344C810.229 61.6562 809.891 58.987 809.891 56.2266C809.891 53.4661 810.229 50.7969 810.906 48.2188C811.583 45.6406 812.534 43.2448 813.758 41.0312C814.982 38.7917 816.453 36.7604 818.172 34.9375C819.917 33.0885 821.831 31.513 823.914 30.2109C825.997 28.8828 828.237 27.8672 830.633 27.1641C833.055 26.4349 835.555 26.0703 838.133 26.0703C840.867 26.0703 843.458 26.4609 845.906 27.2422C848.38 28.0234 850.659 29.1042 852.742 30.4844C854.852 31.8646 856.753 33.5052 858.445 35.4062C860.138 37.3073 861.57 39.3776 862.742 41.6172C863.94 43.8568 864.852 46.2135 865.477 48.6875C866.128 51.1615 866.453 53.6745 866.453 56.2266ZM863.836 2.86719C863.836 3.54427 863.589 4.07812 863.094 4.46875L842.469 22.9453C842.078 23.2578 841.622 23.4141 841.102 23.4141C840.503 23.4141 840.008 23.2188 839.617 22.8281C839.227 22.4115 839.031 21.9427 839.031 21.4219C839.031 21.0573 839.109 20.7318 839.266 20.4453L849.188 1.89062C849.604 1.21354 850.216 0.875 851.023 0.875H861.766C862.365 0.875 862.859 1.08333 863.25 1.5C863.641 1.89062 863.836 2.34635 863.836 2.86719ZM931.883 27.2812C931.883 27.724 931.753 28.1406 931.492 28.5312C931.258 28.8958 930.919 29.1432 930.477 29.2734C929.565 29.5078 928.667 29.7292 927.781 29.9375C926.896 30.1198 925.997 30.276 925.086 30.4062C925.763 34.5208 926.232 38.5182 926.492 42.3984C926.779 46.2786 926.922 50.1198 926.922 53.9219C926.922 59.0781 926.714 64.0521 926.297 68.8438C925.906 73.6354 925.424 78.3359 924.852 82.9453C924.695 83.5182 924.422 83.9479 924.031 84.2344C923.667 84.5469 923.25 84.7031 922.781 84.7031C921.896 84.7031 921.284 84.2865 920.945 83.4531C920.216 81.6823 919.214 79.5078 917.938 76.9297C916.688 74.3255 915.268 71.5391 913.68 68.5703C912.117 65.5755 910.451 62.4766 908.68 59.2734C906.935 56.0703 905.216 52.9714 903.523 49.9766C901.857 46.9818 900.281 44.1823 898.797 41.5781C897.312 38.9479 896.049 36.7214 895.008 34.8984L893.836 80.1719C894.826 80.25 895.828 80.3281 896.844 80.4062C897.885 80.4844 898.927 80.5625 899.969 80.6406C900.49 80.7188 900.919 80.9531 901.258 81.3438C901.622 81.7344 901.805 82.1901 901.805 82.7109C901.805 83.3099 901.583 83.7917 901.141 84.1562C900.698 84.5208 900.229 84.7031 899.734 84.7031H899.578C897.495 84.4948 895.411 84.3385 893.328 84.2344C891.271 84.1302 889.201 84.0781 887.117 84.0781C885.06 84.0781 883.016 84.1302 880.984 84.2344C878.979 84.3385 876.961 84.4948 874.93 84.7031H874.773C874.201 84.7031 873.706 84.4948 873.289 84.0781C872.898 83.6875 872.703 83.2318 872.703 82.7109C872.703 82.1901 872.872 81.7344 873.211 81.3438C873.576 80.9531 874.018 80.7188 874.539 80.6406C875.503 80.5625 876.466 80.4844 877.43 80.4062C878.419 80.3281 879.396 80.25 880.359 80.1719L881.258 30.875C879.018 30.7188 876.753 30.4844 874.461 30.1719C873.94 30.0938 873.51 29.8594 873.172 29.4688C872.859 29.0521 872.703 28.5833 872.703 28.0625C872.703 27.4375 872.938 26.9557 873.406 26.6172C873.875 26.2526 874.331 26.0703 874.773 26.0703H875.008C877.794 26.4349 880.516 26.7214 883.172 26.9297C885.854 27.112 888.523 27.2031 891.18 27.2031H894.07C894.096 27.2031 894.174 27.2161 894.305 27.2422C894.435 27.2422 894.578 27.2682 894.734 27.3203C894.917 27.3724 895.099 27.4635 895.281 27.5938C895.49 27.724 895.672 27.9062 895.828 28.1406C895.932 28.3229 896.271 28.9089 896.844 29.8984C897.417 30.888 898.159 32.1771 899.07 33.7656C899.982 35.3542 901.023 37.1901 902.195 39.2734C903.393 41.3568 904.656 43.5833 905.984 45.9531C907.339 48.3229 908.719 50.7839 910.125 53.3359C911.531 55.888 912.911 58.4401 914.266 60.9922C915.646 63.5182 916.961 65.9922 918.211 68.4141C919.487 70.8099 920.633 73.0495 921.648 75.1328C921.987 71.7214 922.273 68.2578 922.508 64.7422C922.742 61.2266 922.859 57.6198 922.859 53.9219C922.859 50.224 922.716 46.4479 922.43 42.5938C922.143 38.7396 921.674 34.7812 921.023 30.7188C920.685 30.7708 920.359 30.7969 920.047 30.7969C919.734 30.7969 919.396 30.7969 919.031 30.7969C917.495 30.7969 915.893 30.7188 914.227 30.5625C913.706 30.5104 913.263 30.2891 912.898 29.8984C912.56 29.4818 912.391 29.013 912.391 28.4922C912.391 27.9193 912.599 27.4375 913.016 27.0469C913.458 26.6562 913.94 26.4609 914.461 26.4609H914.695C915.424 26.5651 916.141 26.6432 916.844 26.6953C917.573 26.7214 918.302 26.7344 919.031 26.7344C920.828 26.7344 922.586 26.6172 924.305 26.3828C926.023 26.1484 927.703 25.8099 929.344 25.3672C929.448 25.3151 929.63 25.2891 929.891 25.2891C930.464 25.2891 930.932 25.4974 931.297 25.9141C931.688 26.3047 931.883 26.7604 931.883 27.2812Z" fill="url(#paint0_linear)"/>
<defs>
<linearGradient id="paint0_linear" x1="478.5" y1="1" x2="478.5" y2="79.4312" gradientUnits="userSpaceOnUse">
<stop stop-color="#a0a0a0"/>
<stop offset="1" stop-color="#D8D8D8" stop-opacity="0.50"/>
</linearGradient>
</defs>
</svg>
