<svg width="89" height="108" viewBox="0 0 89 108" fill="none" xmlns="http://www.w3.org/2000/svg">
<g filter="url(#filter0_d)">
<path d="M23.4509 97.6063L19.9683 16.1606H76.8563L82.2102 96.6142L23.4509 97.6063ZM17.8563 30.0991L20.6692 95.8767L15.1422 90.5506L17.8563 30.0991ZM8.2825 10.8795L11.1008 4.33521L14.0449 11.0215L8.2825 10.8795ZM68.7708 2.36768L75.6644 13.5597H18.0633L13.1357 2.36768H68.7708ZM79.4663 14.6749C79.4419 14.3008 79.2065 13.9906 78.8791 13.7893L70.7692 0.621506C70.5338 0.237946 70.0765 0 69.5786 0H11.1644C10.7247 0 10.3133 0.188225 10.0603 0.503128C9.89121 0.629791 9.74238 0.778961 9.6585 0.975479L5.08132 11.5992C4.92707 11.9568 4.97984 12.3581 5.22338 12.6754C5.46692 12.9938 5.87146 13.1891 6.30848 13.1998L15.0975 13.4153L15.8241 15.0643L12.4173 90.9425C12.4024 91.2514 12.5282 91.5545 12.7677 91.7842L20.8911 99.6129C21.1481 99.8603 21.5121 100 21.8936 100H21.9193L83.6687 98.9582C84.0353 98.9511 84.3844 98.815 84.6361 98.5782C84.885 98.3414 85.0136 98.0265 84.9919 97.7045L79.4663 14.6749Z" fill="#404040"/>
<path d="M59.0873 46.1919C57.9779 57.0418 44.9174 52.4272 45.6426 61.5818L45.7657 62.0636C49.822 64.5189 55.9782 62.9503 59.5622 58.5358C63.0327 54.229 62.8365 48.7845 59.0873 46.1919Z" fill="#404040"/>
<path d="M56.4197 45.5261L56.3317 45.0123C52.2768 42.5594 46.1207 44.1292 42.5366 48.5402C39.0634 52.847 39.261 58.2926 43.0128 60.8853C42.8045 50.8321 55.8487 54.7068 56.4197 45.5261Z" fill="#404040"/>
</g>
<defs>
<filter id="filter0_d" x="0" y="0" width="88" height="108" filterUnits="userSpaceOnUse" color-interpolation-filters="sRGB">
<feFlood flood-opacity="0" result="BackgroundImageFix"/>
<feColorMatrix in="SourceAlpha" type="matrix" values="0 0 0 0 0 0 0 0 0 0 0 0 0 0 0 0 0 0 127 0"/>
<feOffset dy="4"/>
<feGaussianBlur stdDeviation="2"/>
<feColorMatrix type="matrix" values="0 0 0 0 0 0 0 0 0 0 0 0 0 0 0 0 0 0 0.25 0"/>
<feBlend mode="normal" in2="BackgroundImageFix" result="effect1_dropShadow"/>
<feBlend mode="normal" in="SourceGraphic" in2="effect1_dropShadow" result="shape"/>
</filter>
</defs>
</svg>
