<svg width="50" height="50" viewBox="0 0 50 50" fill="none" xmlns="http://www.w3.org/2000/svg">
<path d="M48.9182 11.8576H35.954C36.9442 10.901 37.6255 9.66989 37.9101 8.32281C38.1947 6.97573 38.0696 5.5743 37.5509 4.29891C37.0323 3.02353 36.1438 1.93255 34.9998 1.16643C33.8558 0.4003 32.5088 -0.00591671 31.132 6.51263e-05C29.8866 0.0911013 28.6861 0.502977 27.6471 1.19561C26.6082 1.88824 25.7662 2.83804 25.2032 3.95257C24.6326 2.844 23.7887 1.89927 22.7513 1.20766C21.7139 0.516056 20.5172 0.100428 19.2745 6.51263e-05C17.8977 -0.00591671 16.5506 0.4003 15.4066 1.16643C14.2626 1.93255 13.3741 3.02353 12.8555 4.29891C12.3368 5.5743 12.2117 6.97573 12.4963 8.32281C12.7809 9.66989 13.4622 10.901 14.4524 11.8576H1.48819C1.22613 11.8576 0.974794 11.9617 0.789484 12.147C0.604175 12.3323 0.500069 12.5836 0.500069 12.8457V21.3238C0.498489 21.4534 0.524048 21.5819 0.575101 21.701C0.626155 21.8201 0.701573 21.9273 0.796507 22.0155C0.98015 22.1999 1.22801 22.3061 1.48819 22.3119H2.19965V48.4182C2.19965 48.6803 2.30375 48.9316 2.48906 49.1169C2.67437 49.3022 2.9257 49.4063 3.18777 49.4063H47.2186C47.4807 49.4063 47.732 49.3022 47.9174 49.1169C48.1027 48.9316 48.2068 48.6803 48.2068 48.4182V22.3119H48.9182C49.1803 22.3119 49.4316 22.2078 49.6169 22.0225C49.8022 21.8372 49.9063 21.5859 49.9063 21.3238V12.8457C49.9063 12.5836 49.8022 12.3323 49.6169 12.147C49.4316 11.9617 49.1803 11.8576 48.9182 11.8576ZM47.9301 13.8338V20.3357H29.5707V13.8338H47.9301ZM25.2032 13.8338H27.5945V20.3357H22.8119V13.8338H25.2032ZM27.5945 22.3119V47.4301H22.8119V22.3119H27.5945ZM31.132 1.97632C32.4423 1.97632 33.699 2.49684 34.6255 3.42339C35.5521 4.34994 36.0726 5.60661 36.0726 6.91694C36.0726 8.22728 35.5521 9.48395 34.6255 10.4105C33.699 11.337 32.4423 11.8576 31.132 11.8576H26.1913V6.26478C26.5471 5.47428 28.2071 1.97632 31.132 1.97632ZM14.3338 6.91694C14.3338 5.60661 14.8544 4.34994 15.7809 3.42339C16.7074 2.49684 17.9641 1.97632 19.2745 1.97632C22.1795 1.97632 23.8791 5.47428 24.2348 6.26478V11.8576H19.2745C17.9641 11.8576 16.7074 11.337 15.7809 10.4105C14.8544 9.48395 14.3338 8.22728 14.3338 6.91694ZM2.47632 13.8338H20.8357V20.3357H2.47632V13.8338ZM4.1759 22.3119H20.8357V47.4301H4.1759V22.3119ZM46.2305 47.4301H29.5707V22.3119H46.2305V47.4301Z" fill="#5B331F"/>
</svg>
