<svg width="78" height="38" viewBox="0 0 78 38" fill="none" xmlns="http://www.w3.org/2000/svg">
<path d="M76.6328 18.9656L71.5594 13.8922L68.9031 6.21563C68.8196 5.9663 68.6639 5.74738 68.4559 5.58661C68.2478 5.42583 67.9967 5.33043 67.7344 5.3125H50.4688V1.32812C50.4619 0.978013 50.3198 0.644137 50.0722 0.396524C49.8246 0.148911 49.4907 0.00680019 49.1406 0H1.32812C0.975884 0 0.63807 0.139926 0.388999 0.388998C0.139927 0.63807 0 0.975884 0 1.32812C0 1.68037 0.139927 2.01818 0.388999 2.26725C0.63807 2.51632 0.975884 2.65625 1.32812 2.65625H47.8125V29.2188H31.7422C31.4374 27.7176 30.6229 26.368 29.4369 25.3986C28.2509 24.4292 26.7662 23.8996 25.2344 23.8996C23.7026 23.8996 22.2179 24.4292 21.0318 25.3986C19.8458 26.368 19.0314 27.7176 18.7266 29.2188H9.29688C8.94463 29.2188 8.60682 29.3587 8.35775 29.6077C8.10868 29.8568 7.96875 30.1946 7.96875 30.5469C7.96875 30.8991 8.10868 31.2369 8.35775 31.486C8.60682 31.7351 8.94463 31.875 9.29688 31.875H18.7266C19.0314 33.3762 19.8458 34.7258 21.0318 35.6952C22.2179 36.6646 23.7026 37.1942 25.2344 37.1942C26.7662 37.1942 28.2509 36.6646 29.4369 35.6952C30.6229 34.7258 31.4374 33.3762 31.7422 31.875H55.9141C56.2189 33.3762 57.0333 34.7258 58.2193 35.6952C59.4054 36.6646 60.8901 37.1942 62.4219 37.1942C63.9537 37.1942 65.4384 36.6646 66.6244 35.6952C67.8104 34.7258 68.6249 33.3762 68.9297 31.875H75.7031C76.0554 31.875 76.3932 31.7351 76.6423 31.486C76.8913 31.2369 77.0312 30.8991 77.0312 30.5469V19.9219C77.0304 19.5629 76.8871 19.219 76.6328 18.9656ZM25.2344 34.5312C24.4463 34.5312 23.676 34.2976 23.0208 33.8598C22.3655 33.422 21.8549 32.7997 21.5533 32.0716C21.2517 31.3436 21.1728 30.5425 21.3266 29.7696C21.4803 28.9967 21.8598 28.2867 22.417 27.7295C22.9742 27.1723 23.6842 26.7928 24.4571 26.6391C25.23 26.4853 26.0311 26.5642 26.7591 26.8658C27.4872 27.1674 28.1095 27.678 28.5473 28.3333C28.9851 28.9885 29.2188 29.7588 29.2188 30.5469C29.2188 31.6036 28.799 32.617 28.0518 33.3643C27.3045 34.1115 26.2911 34.5312 25.2344 34.5312ZM62.4219 34.5312C61.6338 34.5312 60.8635 34.2976 60.2083 33.8598C59.553 33.422 59.0424 32.7997 58.7408 32.0716C58.4392 31.3436 58.3603 30.5425 58.5141 29.7696C58.6678 28.9967 59.0473 28.2867 59.6045 27.7295C60.1617 27.1723 60.8717 26.7928 61.6446 26.6391C62.4175 26.4853 63.2186 26.5642 63.9466 26.8658C64.6747 27.1674 65.297 27.678 65.7348 28.3333C66.1726 28.9885 66.4062 29.7588 66.4062 30.5469C66.4062 31.6036 65.9865 32.617 65.2393 33.3643C64.492 34.1115 63.4786 34.5312 62.4219 34.5312ZM74.375 29.2188H68.9297C68.6249 27.7176 67.8104 26.368 66.6244 25.3986C65.4384 24.4292 63.9537 23.8996 62.4219 23.8996C60.8901 23.8996 59.4054 24.4292 58.2193 25.3986C57.0333 26.368 56.2189 27.7176 55.9141 29.2188H50.4688V7.96875H66.7781L69.1422 15.0344C69.1966 15.2302 69.3075 15.4058 69.4609 15.5391L74.375 20.4797V29.2188Z" fill="#5B331F"/>
<path d="M26.5625 19.9219C26.5625 19.5696 26.4226 19.2318 26.1735 18.9827C25.9244 18.7337 25.5866 18.5938 25.2344 18.5938H6.64062C6.28838 18.5938 5.95057 18.7337 5.7015 18.9827C5.45243 19.2318 5.3125 19.5696 5.3125 19.9219C5.3125 20.2741 5.45243 20.6119 5.7015 20.861C5.95057 21.1101 6.28838 21.25 6.64062 21.25H25.2344C25.5866 21.25 25.9244 21.1101 26.1735 20.861C26.4226 20.6119 26.5625 20.2741 26.5625 19.9219Z" fill="#5B331F"/>
<path d="M27.8906 13.2812C28.2429 13.2812 28.5807 13.1413 28.8298 12.8923C29.0788 12.6432 29.2188 12.3054 29.2188 11.9531C29.2188 11.6009 29.0788 11.2631 28.8298 11.014C28.5807 10.7649 28.2429 10.625 27.8906 10.625H14.6094C14.2571 10.625 13.9193 10.7649 13.6702 11.014C13.4212 11.2631 13.2812 11.6009 13.2812 11.9531C13.2812 12.3054 13.4212 12.6432 13.6702 12.8923C13.9193 13.1413 14.2571 13.2812 14.6094 13.2812H27.8906Z" fill="#5B331F"/>
<path d="M7.96875 11.9531C7.96875 11.6009 7.82882 11.2631 7.57975 11.014C7.33068 10.7649 6.99287 10.625 6.64062 10.625H3.98438C3.63213 10.625 3.29432 10.7649 3.04525 11.014C2.79618 11.2631 2.65625 11.6009 2.65625 11.9531C2.65625 12.3054 2.79618 12.6432 3.04525 12.8923C3.29432 13.1413 3.63213 13.2812 3.98438 13.2812H6.64062C6.99287 13.2812 7.33068 13.1413 7.57975 12.8923C7.82882 12.6432 7.96875 12.3054 7.96875 11.9531Z" fill="#5B331F"/>
</svg>
