<svg width="32" height="31" viewBox="0 0 32 31" fill="none" xmlns="http://www.w3.org/2000/svg">
<path d="M28.9636 8.09905C27.5775 5.72423 25.6975 3.84408 23.3229 2.45817C20.9479 1.0722 18.3551 0.379395 15.5428 0.379395C12.7307 0.379395 10.1371 1.07241 7.76263 2.45817C5.38781 3.84401 3.5078 5.72423 2.12175 8.09905C0.73592 10.4738 0.0429688 13.067 0.0429688 15.8787C0.0429688 19.2562 1.02835 22.2933 2.99962 24.9908C4.97068 27.6885 7.51699 29.5552 10.6384 30.5911C11.0017 30.6586 11.2707 30.6111 11.4456 30.45C11.6205 30.2887 11.7079 30.0867 11.7079 29.8448C11.7079 29.8044 11.7044 29.4413 11.6977 28.755C11.6908 28.0687 11.6875 27.47 11.6875 26.9591L11.2233 27.0394C10.9273 27.0937 10.554 27.1166 10.1032 27.1101C9.6526 27.1038 9.18486 27.0566 8.70058 26.9688C8.21609 26.8818 7.76546 26.68 7.34833 26.3638C6.93141 26.0476 6.63544 25.6337 6.46049 25.1228L6.25868 24.6584C6.12416 24.3492 5.91238 24.0057 5.62305 23.6292C5.33373 23.2524 5.04115 22.9969 4.74518 22.8624L4.60388 22.7613C4.50972 22.6941 4.42235 22.613 4.34156 22.5189C4.26083 22.4248 4.20039 22.3306 4.16003 22.2363C4.1196 22.142 4.1531 22.0646 4.2609 22.0039C4.3687 21.9431 4.56352 21.9137 4.8462 21.9137L5.24968 21.974C5.51879 22.0279 5.85166 22.189 6.24871 22.4582C6.64555 22.7273 6.97177 23.077 7.22745 23.5074C7.53706 24.0592 7.91008 24.4796 8.34757 24.7689C8.7847 25.0583 9.22544 25.2027 9.66936 25.2027C10.1133 25.2027 10.4967 25.169 10.8198 25.1021C11.1424 25.0348 11.4452 24.9336 11.7279 24.7992C11.849 23.8974 12.1787 23.2046 12.7167 22.7203C11.9498 22.6397 11.2604 22.5183 10.6481 22.3569C10.036 22.1953 9.40357 21.9331 8.75112 21.5695C8.09832 21.2064 7.55679 20.7554 7.12637 20.2175C6.69588 19.6793 6.34258 18.9727 6.06697 18.0984C5.79122 17.2237 5.65331 16.2147 5.65331 15.0711C5.65331 13.4428 6.18488 12.0572 7.24781 10.9135C6.74989 9.68931 6.79689 8.31698 7.38897 6.79663C7.77917 6.6754 8.35782 6.76638 9.12464 7.06899C9.8916 7.37174 10.4532 7.6311 10.8099 7.84613C11.1666 8.06109 11.4523 8.24325 11.6677 8.39099C12.9192 8.0413 14.2107 7.86642 15.5426 7.86642C16.8745 7.86642 18.1663 8.0413 19.4179 8.39099L20.1848 7.90685C20.7092 7.58381 21.3285 7.28777 22.0412 7.01866C22.7543 6.74969 23.2996 6.67561 23.6765 6.79684C24.2817 8.31726 24.3357 9.68952 23.8376 10.9137C24.9005 12.0574 25.4322 13.4434 25.4322 15.0713C25.4322 16.2149 25.2938 17.2271 25.0185 18.1085C24.7428 18.99 24.3865 19.6959 23.9494 20.2276C23.5117 20.7593 22.9667 21.2066 22.3143 21.5697C21.6617 21.933 21.029 22.1953 20.417 22.3569C19.8047 22.5185 19.1153 22.6399 18.3485 22.7206C19.0479 23.3259 19.3976 24.2812 19.3976 25.5862V29.8442C19.3976 30.0861 19.4818 30.2881 19.6501 30.4495C19.8183 30.6106 20.0839 30.658 20.4472 30.5905C23.569 29.5547 26.1153 27.6879 28.0863 24.9902C30.0571 22.2927 31.0428 19.2556 31.0428 15.8781C31.0421 13.0668 30.3488 10.4738 28.9636 8.09905Z" fill="white"/>
</svg>
