<svg width="17" height="31" viewBox="0 0 17 31" fill="none" xmlns="http://www.w3.org/2000/svg">
<path d="M10.5952 22.8941C10.5952 25.3281 10.5889 27.756 10.6015 30.19C10.6015 30.4564 10.5264 30.5291 10.2512 30.523C8.11215 30.5109 5.97935 30.5109 3.84035 30.523C3.54635 30.523 3.45255 30.4564 3.45255 30.1597C3.46505 25.3342 3.45875 20.5146 3.45875 15.689C3.45875 15.2047 3.51505 15.2652 3.00215 15.2592C2.09525 15.2592 1.18835 15.2531 0.28146 15.2652C0.0625498 15.2652 0 15.1986 0 14.9867C0.00626 13.4549 0.00626 11.917 0 10.3851C0 10.1732 0.0625498 10.1066 0.28146 10.1127C1.23215 10.1248 2.17655 10.1066 3.12725 10.1248C3.38375 10.1308 3.46505 10.0642 3.46505 9.80389C3.45255 8.51422 3.46505 7.21852 3.45875 5.92887C3.45255 4.85719 3.62145 3.82184 4.17805 2.87731C4.77845 1.84801 5.67915 1.13961 6.79245 0.679456C7.73065 0.291956 8.71885 0.110316 9.73215 0.0558239C11.7398 -0.0531611 13.7538 0.037659 15.7615 0.00133096C15.9866 -0.00472304 16.0429 0.0739879 16.0429 0.279847C16.0367 1.87223 16.0367 3.47067 16.0429 5.06305C16.0429 5.30524 15.9491 5.34157 15.7302 5.34157C14.5731 5.33551 13.416 5.33551 12.2589 5.33551C11.2957 5.33551 10.6015 6.00758 10.6015 6.92789C10.6015 7.87848 10.614 8.82301 10.5952 9.77359C10.5889 10.0461 10.6828 10.1127 10.9517 10.1127C12.5342 10.1006 14.1228 10.1127 15.7052 10.1006C15.9679 10.1006 16.0555 10.1732 16.0243 10.4275C15.9305 11.2086 15.849 11.9896 15.7615 12.7707C15.6802 13.5215 15.5426 14.2662 15.4175 15.0109C15.38 15.2228 15.3112 15.2713 15.111 15.2713C13.7538 15.2652 12.4028 15.2652 11.0455 15.2713C10.5139 15.2713 10.5889 15.2047 10.5889 15.7254C10.5952 18.1109 10.5952 20.5025 10.5952 22.8941Z" fill="white"/>
</svg>
