<svg width="33" height="28" viewBox="0 0 33 28" fill="none" xmlns="http://www.w3.org/2000/svg">
<path d="M0 24.3862C3.60937 24.7249 6.83847 23.7952 9.76465 21.5374C9.31347 21.4312 8.90097 21.4312 8.50781 21.3316C6.20683 20.7671 4.61484 19.3394 3.68027 17.1148C3.63515 17.0019 3.51914 16.8624 3.62226 16.7495C3.69961 16.6632 3.84785 16.7362 3.95742 16.7495C4.76953 16.8359 5.58164 16.8093 6.38086 16.6167C6.39375 16.4706 6.29062 16.4839 6.21328 16.4573C4.23457 15.9128 2.79726 14.6976 1.86914 12.8183C1.44375 11.955 1.21171 11.0519 1.18593 10.0823C1.17304 9.70379 1.19238 9.69719 1.53398 9.86319C2.34609 10.2616 3.19687 10.4874 4.17011 10.5339C3.72539 10.162 3.32578 9.83659 2.98418 9.44479C1.94648 8.25619 1.3664 6.86829 1.24394 5.26788C1.14726 3.96632 1.41152 2.75108 1.95937 1.58233C2.08183 1.32335 2.1914 1.34327 2.34609 1.53585C3.42246 2.89053 4.67929 4.03936 6.06504 5.03546C7.09629 5.77921 8.19199 6.39678 9.3457 6.92139C10.8668 7.60539 12.4459 8.06359 14.083 8.33589C14.5986 8.42219 15.1271 8.44209 15.6492 8.49519C15.9135 8.52179 15.9844 8.44209 15.9328 8.16319C15.6685 6.72879 15.849 5.33428 16.4549 4.02608C17.4926 1.79483 19.2328 0.440137 21.5982 0.0815473C23.6994 -0.237203 25.5879 0.380377 27.1541 1.90108C27.3926 2.1335 27.6053 2.19327 27.9275 2.10694C29.1908 1.77491 30.3961 1.30342 31.5305 0.639357C31.5627 0.619437 31.6014 0.612797 31.7174 0.566317C31.1889 2.16671 30.2543 3.34874 28.9459 4.25186C29.2488 4.31163 30.1447 4.14561 30.7635 3.94639C31.3564 3.75381 31.9494 3.58116 32.5166 3.32217C32.5939 3.4085 32.523 3.45499 32.4908 3.50147C31.7367 4.59717 30.873 5.58663 29.8418 6.41009C29.7 6.52299 29.5646 6.64909 29.4164 6.75539C29.3068 6.83509 29.3004 6.93469 29.3068 7.04759C29.3519 8.25619 29.2682 9.45809 29.1006 10.6468C28.9266 11.862 28.6301 13.0441 28.2369 14.2062C27.9146 15.1558 27.5344 16.0788 27.0832 16.9753C25.9682 19.18 24.518 21.1191 22.7068 22.7726C20.7797 24.5257 18.5883 25.7874 16.1391 26.571C14.6115 27.0624 13.0453 27.348 11.4404 27.4343C10.2029 27.5007 8.97187 27.4808 7.74726 27.3214C5.99414 27.1023 4.30546 26.6109 2.68125 25.8937C1.8498 25.5284 1.06347 25.0902 0.277148 24.632C0.167578 24.5855 0.058008 24.5323 0 24.3862Z" fill="white"/>
</svg>
